<?xml version="1.0" encoding="UTF-8"?>
<svg version="1.1" xmlns="http://www.w3.org/2000/svg" width="505" height="465">
<path d="M0 0 C166.65 0 333.3 0 505 0 C505 153.45 505 306.9 505 465 C338.35 465 171.7 465 0 465 C0 311.55 0 158.1 0 0 Z " fill="#000000" transform="translate(0,0)"/>
<path d="M0 0 C4.42670029 3.98296359 8.73589454 8.08400689 12.98730469 12.25292969 C13.59034424 12.83913086 14.19338379 13.42533203 14.81469727 14.02929688 C44.83827249 43.54057947 61.69139233 87.1524627 62.22875977 128.90283203 C62.35781972 175.7257819 45.96020507 219.77310697 13.01586914 253.52905273 C6.681438 259.88715017 0.27508476 265.98632475 -7.01269531 271.25292969 C-7.98078125 271.96449219 -8.94886719 272.67605469 -9.94628906 273.40917969 C-50.582135 302.45610016 -99.83195261 313.641256 -149.16503906 306.28808594 C-188.05772354 299.78552355 -222.29718375 280.92438427 -250.01269531 253.25292969 C-250.61895752 252.66568115 -251.22521973 252.07843262 -251.84985352 251.47338867 C-282.41202684 221.66079856 -298.3347813 177.69819147 -299.36425781 135.62548828 C-299.76567236 86.42711791 -280.0643473 43.21341175 -246.20019531 8.12792969 C-181.78278354 -54.66380608 -79.37922763 -58.67475443 0 0 Z " fill="#000000" transform="translate(369.0126953125,89.7470703125)"/>
<path d="M0 0 C2.09177176 1.83965614 3.04987959 3.26054119 4.07421875 5.82421875 C-0.35095363 7.38699614 -4.7433326 8.51131396 -9.33203125 9.48828125 C-10.7972871 9.80404187 -12.2624526 10.12022194 -13.72753906 10.43676758 C-14.49279907 10.60125397 -15.25805908 10.76574036 -16.04650879 10.93521118 C-105.87195034 29.92647911 -105.87195034 29.92647911 -175.92578125 84.82421875 C-183.02408714 95.94867081 -186.70867589 107.36457019 -184.45703125 120.57421875 C-179.09003491 143.06448914 -160.85779974 157.84361484 -142.09667969 169.51513672 C-98.60295046 195.74246197 -47.01153801 208.44647451 2.48974609 217.61816406 C3.21513077 217.7530574 3.94051544 217.88795074 4.68788147 218.02693176 C6.63987073 218.38791695 8.5929674 218.74289961 10.54614258 219.09741211 C14.13402412 219.83653904 17.56735007 220.77376126 21.07421875 221.82421875 C19.10784336 224.19395319 17.11449794 226.51874603 15.07421875 228.82421875 C14.49027344 229.48808594 13.90632813 230.15195312 13.3046875 230.8359375 C-13.29095206 259.21511107 -55.01962158 274.72452366 -93.2890625 276.10546875 C-139.95570258 277.09940399 -181.24742632 260.88753268 -214.92578125 228.82421875 C-215.70566406 228.10878906 -216.48554688 227.39335937 -217.2890625 226.65625 C-243.54724053 201.79726441 -259.09559237 163.45409247 -260.12890625 127.6171875 C-260.61682498 92.43699622 -251.14004525 57.67154765 -228.92578125 29.82421875 C-228.32636719 29.02371094 -227.72695312 28.22320312 -227.109375 27.3984375 C-202.30590622 -5.06873353 -163.4810078 -26.1327635 -123.30078125 -31.98828125 C-78.62509242 -37.81554501 -36.43535511 -25.97857158 0 0 Z " fill="#09DFF0" transform="translate(350.92578125,101.17578125)"/>
<path d="M0 0 C4.42670029 3.98296359 8.73589454 8.08400689 12.98730469 12.25292969 C13.59034424 12.83913086 14.19338379 13.42533203 14.81469727 14.02929688 C44.83827249 43.54057947 61.69139233 87.1524627 62.22875977 128.90283203 C62.35781972 175.7257819 45.96020507 219.77310697 13.01586914 253.52905273 C6.681438 259.88715017 0.27508476 265.98632475 -7.01269531 271.25292969 C-7.98078125 271.96449219 -8.94886719 272.67605469 -9.94628906 273.40917969 C-50.582135 302.45610016 -99.83195261 313.641256 -149.16503906 306.28808594 C-188.05772354 299.78552355 -222.29718375 280.92438427 -250.01269531 253.25292969 C-250.61895752 252.66568115 -251.22521973 252.07843262 -251.84985352 251.47338867 C-282.41202684 221.66079856 -298.3347813 177.69819147 -299.36425781 135.62548828 C-299.76567236 86.42711791 -280.0643473 43.21341175 -246.20019531 8.12792969 C-181.78278354 -54.66380608 -79.37922763 -58.67475443 0 0 Z M-251.27832031 20.73339844 C-258.38275848 28.67385089 -264.39675897 37.21364647 -270.01269531 46.25292969 C-270.71136719 47.36023438 -271.41003906 48.46753906 -272.12988281 49.60839844 C-294.38173026 86.53607523 -299.33402913 132.24116095 -289.31884766 173.78393555 C-286.96925173 182.92362264 -283.91359937 191.65829163 -280.01269531 200.25292969 C-279.72023926 200.8982666 -279.4277832 201.54360352 -279.12646484 202.20849609 C-260.32488669 243.00662677 -225.32359372 275.53796394 -183.42675781 291.65917969 C-139.06899892 308.00045791 -89.37337253 308.06778672 -45.99365234 288.33447266 C-41.26251827 286.10652419 -36.62607146 283.7140232 -32.01269531 281.25292969 C-31.40151855 280.93066406 -30.7903418 280.60839844 -30.16064453 280.27636719 C-16.29358154 272.90656433 -4.74430561 263.43999425 6.54736328 252.62548828 C7.81174385 251.42027507 9.09533206 250.23527975 10.38183594 249.05371094 C39.69798359 221.32221991 55.77699898 178.83101418 57.26855469 139.08105469 C58.20857053 97.06657507 45.17423303 55.91846262 16.98730469 24.25292969 C15.84455078 22.94775391 15.84455078 22.94775391 14.67871094 21.61621094 C-16.25487545 -13.28188231 -59.53836298 -34.30420998 -106.01269531 -37.74707031 C-161.48067093 -40.27435291 -213.45502348 -20.24955569 -251.27832031 20.73339844 Z " fill="#00EBE4" transform="translate(369.0126953125,89.7470703125)"/>
<path d="M0 0 C166.65 0 333.3 0 505 0 C505 153.45 505 306.9 505 465 C338.35 465 171.7 465 0 465 C0 311.55 0 158.1 0 0 Z M2 4 C2 155.47 2 306.94 2 463 C167 463 332 463 502 463 C502 311.53 502 160.06 502 4 C337 4 172 4 2 4 Z " fill="#7F7F7F" transform="translate(0,0)"/>
<path d="M0 0 C-0.75804932 0.38631592 -1.51609863 0.77263184 -2.29711914 1.1706543 C-18.21717997 9.30053231 -33.99824839 17.58990767 -49.47509766 26.54492188 C-51.85368994 27.91568285 -54.24305208 29.26516366 -56.63671875 30.609375 C-82.07134076 44.81563248 -82.07134076 44.81563248 -98 68 C-99.70065859 76.84082824 -96.68481571 83.58758047 -92 91 C-87.53828864 97.30410959 -81.68197547 102.04216568 -75.61474609 106.74755859 C-74.51983452 107.59680208 -73.4291257 108.45148674 -72.34228516 109.31103516 C-51.34285541 125.88641108 -27.89282468 139.23807731 -5 153 C-8.48999962 154.16333321 -9.08183787 153.84082189 -12.375 152.515625 C-13.26414597 152.16297577 -14.15329193 151.81032654 -15.06938171 151.44699097 C-16.03648575 151.05198395 -17.00358978 150.65697693 -18 150.25 C-19.01081131 149.84540558 -20.02162262 149.44081116 -21.06306458 149.0239563 C-24.37955075 147.69274671 -27.689945 146.34711368 -31 145 C-33.28854985 144.07509638 -35.57720609 143.15045594 -37.8659668 142.22607422 C-143.90078377 99.29311261 -143.90078377 99.29311261 -154 79 C-154.87864006 74.82475691 -154.78079632 70.84925443 -153.109375 66.890625 C-129.9151426 31.95955211 -55.15941727 17.35189248 -17.47265625 3.984375 C-16.31726601 3.57438515 -16.31726601 3.57438515 -15.13853455 3.15611267 C-13.72720033 2.65692241 -12.31473451 2.16091449 -10.90090942 1.66882324 C-9.14549144 1.05119026 -7.40110379 0.40244335 -5.65795898 -0.24902344 C-3 -1 -3 -1 0 0 Z " fill="#FFFFFF" transform="translate(346,136)"/>
</svg>
